<svg xmlns="http://www.w3.org/2000/svg" xmlns:xlink="http://www.w3.org/1999/xlink" width="375" height="812" viewBox="0 0 375 812">
  <defs>
    <clipPath id="clip-path">
      <rect width="375" height="34" fill="none"/>
    </clipPath>
    <linearGradient id="linear-gradient" x1="0.5" y1="1" x2="0.5" gradientUnits="objectBoundingBox">
      <stop offset="0" stop-color="gray" stop-opacity="0.251"/>
      <stop offset="0.54" stop-color="gray" stop-opacity="0.122"/>
      <stop offset="1" stop-color="gray" stop-opacity="0.102"/>
    </linearGradient>
    <filter id="Path_41" x="15.162" y="328.541" width="35.423" height="54.155" filterUnits="userSpaceOnUse">
      <feOffset dx="5" dy="15" input="SourceAlpha"/>
      <feGaussianBlur stdDeviation="2" result="blur"/>
      <feFlood flood-opacity="0.102"/>
      <feComposite operator="in" in2="blur"/>
      <feComposite in="SourceGraphic"/>
    </filter>
    <clipPath id="clip-Onboarding.4">
      <rect width="375" height="812"/>
    </clipPath>
  </defs>
  <g id="Onboarding.4" clip-path="url(#clip-Onboarding.4)">
    <rect width="375" height="812" fill="#fff"/>
    <g id="OS_HomeIndicator_OnLgiht" data-name="OS/HomeIndicator/OnLgiht" transform="translate(0 778)" clip-path="url(#clip-path)">
      <rect id="_-boundary" data-name="-boundary" width="375" height="34" fill="#fff" opacity="0"/>
      <rect id="indicator" width="135" height="5" rx="2.5" transform="translate(120 20)"/>
    </g>
    <path id="Path_8" data-name="Path 8" d="M237.243,536.471l-161.988-.79-16.1-37.752,56.914-4.132-9.92-41.391,112.57-14.591L110.93,400.342l9.522-2.262,173.332,28.277-9.546,64.6-13.644,35.5Z" transform="translate(-226.776 217.474)" fill="#38d39f"/>
    <path id="Path_45" data-name="Path 45" d="M608.147,670.36s-10.729,13.1-2.21,32.892L520.277,740.4l-8.221,1.723-3.786-16.564,2.532-20.9V693.233Z" transform="translate(-505.262 53.505)" fill="#d5d6db"/>
    <path id="Path_46" data-name="Path 46" d="M59.16,585,177.721,563.39l157.1,25.026-97.577,35.13Z" transform="translate(-226.776 130.399)" fill="#38d39f"/>
    <path id="Path_47" data-name="Path 47" d="M59.16,585,177.721,563.39l157.1,25.026-97.577,35.13Z" transform="translate(-226.776 130.399)" fill="#38d39f"/>
    <path id="Path_48" data-name="Path 48" d="M142.772,652.47s-11.088,21.008,1.69,40.412l175.816,38.1s-10.913-16.734.563-39.962Z" transform="translate(-310.388 62.928)" fill="#38d39f"/>
    <path id="Path_49" data-name="Path 49" d="M142.772,652.47s-11.088,21.008,1.69,40.412l175.816,38.1s-10.913-16.734.563-39.962Z" transform="translate(-310.388 62.928)" opacity="0.1"/>
    <path id="Path_51" data-name="Path 51" d="M327.126,771.744,425.28,729.86s5.49,1.183,1.94,5.206-98.2,40.7-98.2,40.7L151.31,733.646Z" transform="translate(-317.237 22.164)" fill="#38d39f"/>
    <path id="Path_52" data-name="Path 52" d="M327.126,771.744,425.28,729.86s5.49,1.183,1.94,5.206-98.2,40.7-98.2,40.7L151.31,733.646Z" transform="translate(-317.237 22.164)" opacity="0.1"/>
    <path id="Path_53" data-name="Path 53" d="M501.128,742.86s-9.465,11.358,0,28.4" transform="translate(-499.284 15.316)" opacity="0.1"/>
    <rect id="Rectangle_107" data-name="Rectangle 107" width="44.756" height="0.473" transform="translate(5.214 772.148) rotate(-18.45)" opacity="0.1"/>
    <rect id="Rectangle_108" data-name="Rectangle 108" width="54.534" height="0.473" transform="translate(5.198 775.958) rotate(-20.82)" opacity="0.1"/>
    <rect id="Rectangle_109" data-name="Rectangle 109" width="63.209" height="0.473" transform="translate(5.483 780.449) rotate(-22.26)" opacity="0.1"/>
    <rect id="Rectangle_110" data-name="Rectangle 110" width="72.759" height="0.473" transform="translate(6.165 784.409) rotate(-24.31)" opacity="0.1"/>
    <rect id="Rectangle_111" data-name="Rectangle 111" width="79.579" height="0.473" transform="matrix(0.916, -0.401, 0.401, 0.916, 6.691, 786.337)" opacity="0.1"/>
    <rect id="Rectangle_112" data-name="Rectangle 112" width="95.229" height="0.473" transform="translate(7.792 789.573) rotate(-23.36)" opacity="0.1"/>
    <path id="Path_54" data-name="Path 54" d="M152.23,594.451l83.294-17.511,50.743,9.7-68.254,22.007Z" transform="translate(-275.8 123.262)" fill="#fff" opacity="0.3"/>
    <path id="Path_55" data-name="Path 55" d="M621.591,659.69s4.307,1.737,1.779,4.42S524,694.82,524,694.82Z" transform="translate(-513.547 59.125)" fill="#38d39f"/>
    <path id="Path_56" data-name="Path 56" d="M707.442,574.18s-10.724,13.09-2.205,32.892l-85.66,37.151-8.221,1.732-3.786-16.564,2.57-20.9V597.053Z" transform="translate(-557.567 104.167)" fill="#d5d6db"/>
    <path id="Path_57" data-name="Path 57" d="M158.46,488.819,277.016,467.21l157.1,25.026-97.577,35.13Z" transform="translate(-279.081 181.061)" fill="#3a3768"/>
    <path id="Path_58" data-name="Path 58" d="M242.029,556.29S230.935,577.3,243.713,596.7L419.53,634.8s-10.909-16.749.582-39.967Z" transform="translate(-362.669 113.59)" fill="#3a3768"/>
    <path id="Path_59" data-name="Path 59" d="M242.029,556.29S230.935,577.3,243.713,596.7L419.53,634.8s-10.909-16.749.582-39.967l-55.6-12.035Z" transform="translate(-362.669 113.59)" opacity="0.1"/>
    <path id="Path_61" data-name="Path 61" d="M426.416,675.564l98.159-41.884s5.485,1.183,1.936,5.206-98.2,40.7-98.2,40.7L250.6,637.466Z" transform="translate(-369.537 72.826)" fill="#3a3768"/>
    <path id="Path_62" data-name="Path 62" d="M426.416,675.564l98.159-41.884s5.485,1.183,1.936,5.206-98.2,40.7-98.2,40.7L250.6,637.466Z" transform="translate(-369.537 72.826)" opacity="0.1"/>
    <path id="Path_63" data-name="Path 63" d="M600.418,646.68s-9.465,11.358,0,28.4" transform="translate(-551.584 65.978)" opacity="0.1"/>
    <rect id="Rectangle_113" data-name="Rectangle 113" width="44.756" height="0.473" transform="translate(52.207 726.634) rotate(-18.45)" opacity="0.1"/>
    <rect id="Rectangle_114" data-name="Rectangle 114" width="54.534" height="0.473" transform="translate(52.198 730.443) rotate(-20.82)" opacity="0.1"/>
    <rect id="Rectangle_115" data-name="Rectangle 115" width="63.209" height="0.473" transform="translate(52.475 734.927) rotate(-22.26)" opacity="0.1"/>
    <rect id="Rectangle_116" data-name="Rectangle 116" width="72.759" height="0.473" transform="translate(53.163 738.889) rotate(-24.31)" opacity="0.1"/>
    <rect id="Rectangle_117" data-name="Rectangle 117" width="79.579" height="0.473" transform="matrix(0.916, -0.401, 0.401, 0.916, 53.683, 740.81)" opacity="0.1"/>
    <rect id="Rectangle_118" data-name="Rectangle 118" width="95.229" height="0.473" transform="translate(54.787 744.046) rotate(-23.36)" opacity="0.1"/>
    <path id="Path_64" data-name="Path 64" d="M251.53,498.271l83.294-17.511,50.743,9.7-68.254,22.007Z" transform="translate(-328.105 173.924)" fill="#fff" opacity="0.45"/>
    <path id="Path_65" data-name="Path 65" d="M720.907,563.51s4.3,1.737,1.779,4.416-99.356,30.71-99.356,30.71Z" transform="translate(-565.868 109.787)" fill="#3a3768"/>
    <path id="Path_66" data-name="Path 66" d="M716.858,464.15s-10.729,23.507-2.21,43.3l-85.66,26.739-8.2,1.737L617,519.365l2.532-20.9V487.023Z" transform="translate(-562.534 162.124)" fill="#d5d6db"/>
    <path id="Path_67" data-name="Path 67" d="M167.89,378.794,286.451,357.18l157.1,25.026-97.582,35.13Z" transform="translate(-284.049 239.018)" fill="#38d39f"/>
    <path id="Path_68" data-name="Path 68" d="M251.488,446.26s-11.107,21.008,1.671,40.412l175.816,38.1s-10.913-16.749.577-39.962Z" transform="translate(-367.646 171.547)" fill="#38d39f"/>
    <path id="Path_69" data-name="Path 69" d="M251.488,446.26s-11.107,21.008,1.671,40.412l175.816,38.1s-10.913-16.749.577-39.962Z" transform="translate(-367.646 171.547)" opacity="0.1"/>
    <path id="Path_71" data-name="Path 71" d="M435.856,569.747l98.154-31.472s5.49,1.183,1.94,5.206-98.2,30.289-98.2,30.289L260.04,531.65Z" transform="translate(-374.509 126.569)" fill="#38d39f"/>
    <path id="Path_72" data-name="Path 72" d="M435.856,569.747l98.154-31.472s5.49,1.183,1.94,5.206-98.2,30.289-98.2,30.289L260.04,531.65Z" transform="translate(-374.509 126.569)" opacity="0.1"/>
    <path id="Path_73" data-name="Path 73" d="M609.858,536.65s-9.465,11.358,0,28.4" transform="translate(-556.556 123.935)" opacity="0.1"/>
    <rect id="Rectangle_119" data-name="Rectangle 119" width="44.756" height="0.473" transform="translate(56.676 674.56) rotate(-18.45)" opacity="0.1"/>
    <rect id="Rectangle_120" data-name="Rectangle 120" width="54.534" height="0.473" transform="translate(56.663 678.371) rotate(-20.82)" opacity="0.1"/>
    <rect id="Rectangle_121" data-name="Rectangle 121" width="63.209" height="0.473" transform="translate(56.937 682.859) rotate(-22.26)" opacity="0.1"/>
    <rect id="Rectangle_122" data-name="Rectangle 122" width="72.759" height="0.473" transform="translate(57.631 686.815) rotate(-24.31)" opacity="0.1"/>
    <rect id="Rectangle_123" data-name="Rectangle 123" width="79.579" height="0.473" transform="matrix(0.916, -0.401, 0.401, 0.916, 58.153, 688.741)" opacity="0.1"/>
    <rect id="Rectangle_124" data-name="Rectangle 124" width="95.229" height="0.473" transform="translate(59.255 691.981) rotate(-23.36)" opacity="0.1"/>
    <path id="Path_74" data-name="Path 74" d="M260.96,388.241l83.294-17.511,50.743,9.7-68.254,22.007Z" transform="translate(-333.072 231.881)" fill="#fff" opacity="0.3"/>
    <path id="Path_75" data-name="Path 75" d="M730.337,453.48s4.307,1.737,1.779,4.42-99.356,30.71-99.356,30.71Z" transform="translate(-570.835 167.744)" fill="#38d39f"/>
    <path id="Path_77" data-name="Path 77" d="M915.733,259.474s-17.984-1.084-15.883,11.533a3.078,3.078,0,0,0,1.6,3.242s.033-.947,1.846-.62a8.336,8.336,0,0,0,1.959.095,4.065,4.065,0,0,0,2.366-.984h0s5.064-2.092,7.028-10.364c0,0,1.458-1.8,1.42-2.267l-3.038,1.3a5.461,5.461,0,0,1,.222,4.013s-.1-3.933-.681-3.843c-.118,0-1.581.762-1.581.762s1.784,3.819.44,6.592c0,0,.511-4.7-1-6.318l-2.139,1.249s2.087,3.942.672,7.16c0,0,.364-4.936-1.122-6.858l-1.936,1.514s1.959,3.885.762,6.555c0,0-.156-5.745-1.183-6.181a11.868,11.868,0,0,0-1.955,2.111s1.344,2.84.511,4.311c0,0-.511-3.829-.947-3.848a12.738,12.738,0,0,0-1.865,4.259,9.181,9.181,0,0,1,1.458-4.515,5.092,5.092,0,0,0-2.589,1.339s.265-1.794,3.005-1.95a11.817,11.817,0,0,1,1.77-2.044,11.123,11.123,0,0,0-4.382.506s1.458-1.69,4.879-.947l1.893-1.562s-3.592-.473-5.111.052c0,0,1.751-1.5,5.627-.407l2.082-1.245a18.964,18.964,0,0,0-4.884-.421s1.922-1.036,5.495.085l1.491-.667s-2.243-.44-2.9-.511-.691-.251-.691-.251a7.757,7.757,0,0,1,4.212.473A19.092,19.092,0,0,0,915.733,259.474Z" transform="translate(-711.432 269.947)" fill="#38d39f" opacity="0.1"/>
    <path id="Path_79" data-name="Path 79" d="M824.669,199.361s-7.832-16.247-17.814-8.239a3.08,3.08,0,0,0-2.049,2.977s.833-.426,1.42,1.311a8.208,8.208,0,0,0,.875,1.756,4.061,4.061,0,0,0,2.026,1.6h0s4.3,3.4,12.475,1.084c0,0,2.286.388,2.664.114l-2.6-2.026a5.491,5.491,0,0,1-3.393,2.153s3.384-2.007,3.019-2.47c-.076-.095-1.42-1.008-1.42-1.008s-2.461,3.422-5.542,3.6c0,0,4.359-1.846,5.031-3.947l-2.163-1.249s-2.423,3.743-5.925,4.079c0,0,4.486-2.092,5.443-4.326l-2.267-.947s-2.437,3.611-5.348,3.867c0,0,4.936-2.939,4.813-4.046a11.706,11.706,0,0,0-2.792-.677s-1.808,2.546-3.516,2.546c0,0,3.1-2.314,2.906-2.688a12.514,12.514,0,0,0-4.643.473,9.21,9.21,0,0,1,4.652-.947,5.068,5.068,0,0,0-2.428-1.6s1.694-.644,3.166,1.671a11.717,11.717,0,0,1,2.646.554,11.074,11.074,0,0,0-2.579-3.578s2.187.445,3.185,3.81l2.3.909s-1.32-3.374-2.537-4.439c0,0,2.158.8,3.1,4.733l2.106,1.212a18.9,18.9,0,0,0-2.016-4.468s1.846,1.174,2.6,4.837l1.311.975s-.705-2.172-.947-2.778-.118-.724-.118-.724a7.785,7.785,0,0,1,1.642,3.9S824.522,199.512,824.669,199.361Z" transform="translate(-661.457 307.107)" fill="#38d39f" opacity="0.1"/>
    <path id="Path_80" data-name="Path 80" d="M877.543,369.166s-7.832-16.252-17.828-8.244a3.08,3.08,0,0,0-2.049,2.977s.833-.426,1.42,1.311a8.2,8.2,0,0,0,.871,1.756,4.06,4.06,0,0,0,2.026,1.6h0s4.3,3.4,12.48,1.084c0,0,2.281.393,2.66.114l-2.612-2.021a5.491,5.491,0,0,1-3.4,2.153s3.384-2.007,3.019-2.47c-.076-.095-1.42-1.008-1.42-1.008s-2.461,3.422-5.542,3.6c0,0,4.359-1.85,5.031-3.952l-2.134-1.259s-2.423,3.748-5.925,4.079c0,0,4.486-2.092,5.443-4.326l-2.267-.947s-2.437,3.606-5.348,3.867c0,0,4.941-2.939,4.818-4.051a11.756,11.756,0,0,0-2.8-.677s-1.808,2.546-3.516,2.546c0,0,3.1-2.314,2.906-2.688a12.514,12.514,0,0,0-4.643.473,9.238,9.238,0,0,1,4.657-.947,5.059,5.059,0,0,0-2.433-1.6s1.694-.648,3.166,1.671a11.674,11.674,0,0,1,2.646.549,11.162,11.162,0,0,0-2.575-3.578s2.186.445,3.185,3.81l2.3.909s-1.32-3.374-2.537-4.434c0,0,2.158.8,3.1,4.733l2.106,1.207a18.9,18.9,0,0,0-2.016-4.468s1.846,1.174,2.608,4.841l1.311.947s-.71-2.172-.947-2.778-.118-.724-.118-.724a7.738,7.738,0,0,1,1.642,3.9A19.159,19.159,0,0,0,877.543,369.166Z" transform="translate(-689.301 217.666)" fill="#38d39f" opacity="0.1"/>
    <ellipse id="Ellipse_22" data-name="Ellipse 22" cx="10.88" cy="1.216" rx="10.88" ry="1.216" transform="translate(222.057 779.662)" fill="#38d39f" opacity="0.1"/>
    <ellipse id="Ellipse_23" data-name="Ellipse 23" cx="10.88" cy="1.216" rx="10.88" ry="1.216" transform="translate(131.517 773.761)" fill="#38d39f" opacity="0.1"/>
    <ellipse id="Ellipse_24" data-name="Ellipse 24" cx="12.868" cy="2.21" rx="12.868" ry="2.21" transform="translate(70.959 800.557)" fill="#38d39f" opacity="0.1"/>
    <path id="Path_81" data-name="Path 81" d="M678.575,790.14s-17.918,9.257-8.661,20.161a3.463,3.463,0,0,0,3.389,2.2s-.5-.918,1.42-1.652a9.233,9.233,0,0,0,1.936-1.027,4.547,4.547,0,0,0,1.732-2.314h0s3.663-4.9.823-13.975c0,0,.369-2.565.047-2.982l-2.177,2.986a6.1,6.1,0,0,1,2.508,3.729s-2.366-3.725-2.84-3.313c-.1.085-1.079,1.633-1.079,1.633s3.9,2.646,4.188,6.081c0,0-2.2-4.813-4.567-5.5l-1.358,2.423s4.259,2.593,4.733,6.493c0,0-2.475-4.946-5-5.944l-1,2.56s4.108,2.612,4.486,5.859c0,0-3.436-5.428-4.671-5.258a13.119,13.119,0,0,0-.672,3.147s2.9,1.94,2.953,3.848c0,0-2.679-3.384-3.09-3.161,0,0-.17,3.4.653,5.173a10.211,10.211,0,0,1-1.188-5.173,5.679,5.679,0,0,0-1.718,2.764s-.771-1.869,1.77-3.592a13.093,13.093,0,0,1,.535-2.972,12.475,12.475,0,0,0-3.919,2.991s.431-2.456,4.16-3.677l.946-2.593s-3.729,1.581-4.879,2.972c0,0,.828-2.437,5.173-3.606l1.287-2.366a21.73,21.73,0,0,0-4.931,2.366s1.254-2.1,5.329-3.062l1.046-1.491s-2.4.857-3.076,1.164-.8.156-.8.156a8.7,8.7,0,0,1,4.311-1.959S678.741,790.3,678.575,790.14Z" transform="translate(-589.007 -9.588)" fill="#38d39f"/>
    <path id="Path_82" data-name="Path 82" d="M624.885,221.98c-3.1-8.41-20.133-9.2-27.525-7.056-5.253,1.529-16.328,3.251-22.243,4.117l-.383-.364c.767-.227.786-.786.691-1.614a25.245,25.245,0,0,1,.047-3.275c3.625,1.126,6.853-1.538,6.853-1.538h0c4.259-1.893,3.114-10,3.928-12.21.611-1.656,1.268-11.415,1.562-16.28h.062l.033-1.633c.043-.705.062-1.117.062-1.117s.416-11.9,1.23-14.307c.757-2.215,1.372-13.374,1.467-15.144v-.232l-.062-1.032c.043-.752.062-1.59.057-2.47,0-4.046-.421-9.143-.473-9.967v-.431c.033-1.727-.185-10.379-7.544-13.649-2.712-1.212-5.973-2.655-9.129-4.061-.814-7.028-2.674-14.018-2.513-21.1,0-1.065.095-2.13.2-3.19,0,.308-.033.62-.038.947V98.44c.279-8.855,3.625-17.757,3.313-26.422-.028.847-.09,1.7-.17,2.551a27.51,27.51,0,0,0-.909-8.7,5.15,5.15,0,0,0-1.486-2.7,6.119,6.119,0,0,0-2.593-1.027,52.159,52.159,0,0,0-6.81-1.268,10.514,10.514,0,0,0-1.533-2.977c-4.8-6.588-11.907-12.778-20.312-14.2-4.217-.71-9.068-.118-11.936,2.9a8.941,8.941,0,0,0-.842.852c-1.543,1.841-2.205,4.259-3.786,6.1-.1.123-.222.237-.336.355-3.1,2.769-7.918,3.346-11.358,5.831a13.636,13.636,0,0,0-1.7,1.481,28.811,28.811,0,0,0-3.71,4.51c-1.548,2.177-3.138,4.444-3.63,7.042-.989,5.206,2.556,10.142,3.213,15.381,1.467,11.723-11.5,22.125-9.049,33.691a15.428,15.428,0,0,0,4.174,7.492c-5.059,4.581-9.366,9.025-9.366,9.025v.265h-.8l.08.947h-.08l.44,5.135-.44,7.478v.705h.028c.147,2.74.729,12.593,1.42,14.671.814,2.409,1.226,14.307,1.226,14.307s.9,16.815,1.723,19.039-.345,10.3,3.928,12.21h0a8.992,8.992,0,0,0,4.292,1.779c-.218,1.77-.08,3.053.625,3.455a2.063,2.063,0,0,0,.994.284,10.554,10.554,0,0,0-.771,1.349,20.045,20.045,0,0,1-4.96-1.169c-4.591-1.893-19.825-6.152-24.25-3.157s-15.073,5.712-10.156,17.771,7.208,12.362,7.208,12.362a17.509,17.509,0,0,1,3.933,3.952c1.477,2.22,15.234,7.3,18.675,7.3a33.687,33.687,0,0,1,4.378.218s-3.734,3.275-3.237,5.177-1.136,17.132-1.136,17.132,3.786,3.814,5.4-1.188l.057.076c.3.412,1.94,2.272,5.021-.076a28.151,28.151,0,0,1,4-2.537l14.917-2.111a42.229,42.229,0,0,1,4.671-.033c2.366.194,4.69-1.207,6.152-2.291,3.09,1.174,6.564,2.456,8.216,2.925,3.351.947,18.751,5.078,22.352,3.786a5,5,0,0,0,1.94-1.382l3.436.109-1.609.322s3.133.052,7.392.109l-.18.1,5.343-.047c7.818.071,16.6.095,17.757-.166,1.808-.4,11.2-.118,13.971,0h.771s10.322-2.059,6.062-12.532c-3.275-8.045-13.341-10.383-17.809-11.027,1.259-.251,2.343-.445,3.062-.558,3.119-.473,9.177-3.313,9.669-4.283s5.57-3.786,6.881-5.39S627.994,230.39,624.885,221.98ZM539.39,245.516l-.506.166-.341.114-.653.644c-.521-.35-1.079-.719-1.661-1.1C537.256,245.4,538.311,245.464,539.39,245.516ZM584.5,258.852Z" transform="translate(-482.137 383.735)" fill="url(#linear-gradient)"/>
    <path id="Path_83" data-name="Path 83" d="M686.65,300.037s7.241,18.93,11.358,17.037,3-9.938,3.786-12.144S703.451,286,703.451,286s.4-11.832,1.183-14.226c.729-2.2,1.32-13.3,1.42-15.045V256.5l-.781-13.725-4.42-1.1L690.6,245.456l-1.42,8.107-.554,3.166-.237,1.349Z" transform="translate(-599.221 279.313)" fill="#be6f72"/>
    <path id="Path_84" data-name="Path 84" d="M691.69,358.3s6.91,5.655,8.992,6.152,3.36,4.908,3.36,4.908" transform="translate(-601.876 217.879)" opacity="0.1"/>
    <path id="Path_85" data-name="Path 85" d="M545.4,301.787s-7.241,18.93-11.358,17.037-3-9.938-3.786-12.144-1.656-18.93-1.656-18.93-.4-11.832-1.183-14.226c-.729-2.2-1.32-13.3-1.42-15.045v-.232l.786-13.725,4.42-1.1,10.251,3.786,1.42,8.107.554,3.166.237,1.349Z" transform="translate(-514.601 278.391)" fill="#be6f72"/>
    <rect id="Rectangle_125" data-name="Rectangle 125" width="16.162" height="25.192" transform="translate(61.792 478.872)" fill="#3e373a"/>
    <rect id="Rectangle_126" data-name="Rectangle 126" width="16.162" height="25.192" transform="translate(61.792 478.872)" opacity="0.1"/>
    <path id="Path_86" data-name="Path 86" d="M556.626,404.914s-5.523,6.072-3.474,7.175,15.305,21.77,15.305,21.77,43.54,5.362,51.751-2.683,8.045-22.418,8.045-22.418-6.6,1.42-7.317.648-4.671-4.491-4.671-4.491S560.412,401.525,556.626,404.914Z" transform="translate(-528.663 194.119)" fill="#4b4b5b"/>
    <path id="Path_87" data-name="Path 87" d="M556.626,404.914s-5.523,6.072-3.474,7.175,15.305,21.77,15.305,21.77,43.54,5.362,51.751-2.683,8.045-22.418,8.045-22.418-6.6,1.42-7.317.648-4.671-4.491-4.671-4.491S560.412,401.525,556.626,404.914Z" transform="translate(-528.663 194.119)" opacity="0.02"/>
    <path id="Path_88" data-name="Path 88" d="M621.82,195.94l-14.2,11.358-4.292.312-1.576.114-26.469,1.94-27.449-2.007-4.084-.3-5.206-.379L527.66,196.569a186.392,186.392,0,0,1,14.453-13.824,29.652,29.652,0,0,1,7-4.681l.312-.109a7.79,7.79,0,0,0,3-2.092c5.329-5.495,10.256-19.053,10.256-19.053s23.507-12.144,20.667,3.786,10.568,11.992,10.568,11.992l4.42,2.016,1.746.8,4.453,2.04,10.047,4.61C622.473,185.684,621.82,195.94,621.82,195.94Z" transform="translate(-515.475 326.344)" fill="#be6f72"/>
    <circle id="Ellipse_25" data-name="Ellipse 25" cx="21.141" cy="21.141" r="21.141" transform="translate(37.566 453.846)" opacity="0.1"/>
    <path id="Path_89" data-name="Path 89" d="M620.979,239.431H526V239.2l.786-13.725a186.394,186.394,0,0,1,14.453-13.824l59.631-2.366,2.773-2.925,10.047,4.61c7.889,3.625,7.255,13.881,7.255,13.881S622.025,236.734,620.979,239.431Z" transform="translate(-514.601 297.912)" opacity="0.1"/>
    <path id="Path_90" data-name="Path 90" d="M620.979,238.431H526V238.2l.786-13.725a186.4,186.4,0,0,1,14.453-13.824l59.631-2.366,2.773-2.925,10.047,4.61c7.889,3.625,7.255,13.881,7.255,13.881S622.025,235.734,620.979,238.431Z" transform="translate(-514.601 298.439)" fill="#e7c7ca"/>
    <path id="Path_91" data-name="Path 91" d="M587.206,189.318s14.983,19.091,34.941-.393,2.21,43.459,2.21,43.459L581.29,237.5Z" transform="translate(-543.724 309.067)" opacity="0.1"/>
    <path id="Path_92" data-name="Path 92" d="M587.206,191.318s14.983,19.091,34.941-.393,2.21,43.459,2.21,43.459L581.29,239.5Z" transform="translate(-543.724 308.013)" fill="#e7c7ca"/>
    <path id="Path_93" data-name="Path 93" d="M612.641,202.131l1.585,24.179,1.7,8.045,1.3,6.152s3.313,47.326,2.366,49.692.473,4.259.672,5.518-.2,4.42-.043,5.84,0,2.049-3.625,1.543-8.68-1.387-8.68-1.387-12.778.947-17.194-.629-12.778-1.581-12.778-1.581-12.622.317-16.72-.156-6.313,5.05-8.992,3.469,3.152-16.876,5.045-21.3-2.522-15.618-2.522-15.618l5.679-31.5,1.264-7.142V204.8l.312-.109a7.79,7.79,0,0,0,3-2.092l1.42,22.593,44.486,1.581V201.35" transform="translate(-528.052 300.551)" opacity="0.1"/>
    <path id="Path_94" data-name="Path 94" d="M612.641,200.131l1.585,24.179,1.7,8.045,1.3,6.152s3.313,47.326,2.366,49.692.473,4.259.672,5.518-.2,4.42-.043,5.84,0,2.049-3.625,1.543-8.68-1.387-8.68-1.387-12.778.947-17.194-.629-12.778-1.581-12.778-1.581-12.622.317-16.72-.156-6.313,5.05-8.992,3.469,3.152-16.876,5.045-21.3-2.522-15.618-2.522-15.618l5.679-31.5,1.264-7.142V202.8l.312-.109a7.79,7.79,0,0,0,3-2.092l1.42,22.593,44.486,1.581V199.35" transform="translate(-528.052 301.604)" fill="#e7c7ca"/>
    <path id="Path_95" data-name="Path 95" d="M610.39,69.56a5.215,5.215,0,0,0-1.42-2.679,5.812,5.812,0,0,0-2.5-1.022A49.371,49.371,0,0,0,599.9,64.6a10.515,10.515,0,0,0-1.42-2.948c-4.638-6.55-11.5-12.726-19.574-14.122-4.226-.734-9.125-.076-11.832,3.256-1.486,1.832-2.125,4.259-3.625,6.058-2.892,3.493-8.112,3.923-11.756,6.626a21.78,21.78,0,0,0-4.733,5.476c-1.491,2.163-3.024,4.416-3.5,7-.947,5.163,2.466,10.085,3.1,15.3,1.42,11.656-11.074,22-8.713,33.5,1.377,6.706,7.572,11.429,13.98,13.824,2.258.847,4.837,1.69,5.892,3.857.473.947.554,2.04,1,3,1.5,3.19,6.413,3.313,9.053.989s3.474-6.081,3.786-9.588c1.268-15.315-4.865-30.445-4.15-45.8.213-4.643,1.519-9.91,5.679-12.011,5.6-2.84,12.333,1.893,18.495.989a36.692,36.692,0,0,1,1.77,22.39c-.98,4.084-2.674,8.045-2.8,12.257-.185,6.413,3.275,12.272,6.266,17.941a9.545,9.545,0,0,1,1.264,3.46,8.339,8.339,0,0,1-.677,3.62c-1.69,4.548-4.6,8.77-4.936,13.611a2.2,2.2,0,0,0,.355,1.619,2.035,2.035,0,0,0,1.221.549c5.111.876,9.531-3.654,12.026-8.2a38.447,38.447,0,0,0,4.742-16.337c.516-9.636-2.939-19.115-2.726-28.76C608.336,91.178,613.291,80.137,610.39,69.56Z" transform="translate(-520.685 381.717)" opacity="0.1"/>
    <path id="Path_96" data-name="Path 96" d="M611.39,68.56a5.214,5.214,0,0,0-1.42-2.679,5.812,5.812,0,0,0-2.5-1.022A49.369,49.369,0,0,0,600.9,63.6a10.515,10.515,0,0,0-1.42-2.948c-4.638-6.55-11.5-12.726-19.574-14.122-4.226-.734-9.125-.076-11.832,3.256-1.486,1.832-2.125,4.259-3.625,6.058-2.892,3.493-8.112,3.923-11.756,6.626a21.781,21.781,0,0,0-4.733,5.476c-1.491,2.163-3.024,4.416-3.5,7-.947,5.163,2.466,10.085,3.1,15.3,1.42,11.656-11.074,22-8.713,33.5,1.377,6.706,7.572,11.429,13.98,13.824,2.258.847,4.837,1.69,5.892,3.857.473.947.554,2.04,1,3,1.5,3.19,6.413,3.313,9.053.989s3.474-6.081,3.786-9.588c1.268-15.315-4.865-30.445-4.151-45.8.213-4.643,1.519-9.91,5.679-12.011,5.6-2.84,12.333,1.893,18.495.989a36.692,36.692,0,0,1,1.77,22.39c-.98,4.084-2.674,8.045-2.8,12.257-.185,6.413,3.275,12.272,6.266,17.941a9.548,9.548,0,0,1,1.264,3.46,8.34,8.34,0,0,1-.677,3.62c-1.69,4.548-4.6,8.77-4.936,13.611a2.2,2.2,0,0,0,.355,1.619,2.035,2.035,0,0,0,1.221.549c5.111.876,9.531-3.654,12.026-8.2a38.447,38.447,0,0,0,4.742-16.337c.516-9.636-2.939-19.115-2.726-28.76C609.336,90.178,614.291,79.137,611.39,68.56Z" transform="translate(-521.211 382.243)" fill="#3e373a"/>
    <path id="Path_97" data-name="Path 97" d="M581.79,477.9l18.774.6-2.693-13.923-14.382,1.368Z" transform="translate(-502.066 182.446)" fill="#c3c7d9"/>
    <path id="Path_98" data-name="Path 98" d="M696.2,433.77c-1.264,1.576-6.152,4.416-6.626,5.362s-6.309,3.786-9.309,4.259-12.461,2.527-14.2,3.63c-1.245.8-11.235,3.313-17.8,4.709a50.515,50.515,0,0,1-5.391.97c-2.84.156-33.914-10.412-33.914-10.412l5.991-6.152.331-.114c1.694-.573,9.522-3.218,13.867-4.477,4.893-1.42,10.573-7.255,10.573-7.255s8.358-2.84,9.465-3.157-2.84-11.041-2.84-11.041,18.14-2.518,25.239-4.652,23.507-1.344,26.5,7.018S697.479,432.194,696.2,433.77Z" transform="translate(-558.299 193.578)" fill="#4b4b5b"/>
    <path id="Path_99" data-name="Path 99" d="M574.026,504.14s-3.625,3.786-7.255,3.474-16.323.947-16.323.947a25.446,25.446,0,0,0-6.394,3.706c-2.967,2.338-4.543.473-4.837.076l-.052-.076c-1.581,4.974-5.206,1.183-5.206,1.183s1.576-15.144,1.093-17.037,3.119-5.144,3.119-5.144l4.259-1.084,10.79-2.764,15.461,5.362Z" transform="translate(-518.794 149.866)" fill="#e7c7ca"/>
    <path id="Path_100" data-name="Path 100" d="M542.412,493.26l-3.195,22.158-.052-.076c-1.581,4.974-5.206,1.183-5.206,1.183s1.576-15.144,1.093-17.037,3.119-5.144,3.119-5.144Z" transform="translate(-518.794 146.79)" opacity="0.1"/>
    <path id="Path_101" data-name="Path 101" d="M599,360.08s8.358,2.84,15.618,0" transform="translate(-553.053 216.942)" opacity="0.1"/>
    <path id="Path_102" data-name="Path 102" d="M659.29,371.42s3.469,1.732,6.152,0" transform="translate(-584.81 210.968)" opacity="0.1"/>
    <path id="Path_103" data-name="Path 103" d="M659.29,379.215s5.835.781,6.943-.8" transform="translate(-584.81 207.281)" opacity="0.1"/>
    <path id="Path_104" data-name="Path 104" d="M655.29,395.063s10.961-1.42,13.682-3.313" transform="translate(-582.703 200.26)" opacity="0.1"/>
    <path id="Path_105" data-name="Path 105" d="M584.62,391.75s6.152,3.469,10.729,3.313" transform="translate(-545.478 200.26)" opacity="0.1"/>
    <path id="Path_106" data-name="Path 106" d="M648.254,486.888a50.532,50.532,0,0,1-5.391.97c-2.839.156-33.914-10.412-33.914-10.412l5.991-6.152.331-.114c.947.667,1.723,1.24,2.276,1.675,2.608,2.054,5.125-.629,6.072-.629s9.148,6.782,9.148,6.782,7.572,1.737,8.836,3.313,5.679,1.264,6.465,2.366A4.222,4.222,0,0,1,648.254,486.888Z" transform="translate(-558.294 158.421)" opacity="0.1"/>
    <path id="Path_107" data-name="Path 107" d="M517.132,411.516s-7.657.44-12.073-1.42-19.087-6.152-23.346-3.138-14.515,5.679-9.782,17.672,6.943,12.3,6.943,12.3a17.085,17.085,0,0,1,3.786,3.928c1.42,2.21,14.671,7.255,17.984,7.255s9.148,0,17.35,5.679a35.658,35.658,0,0,0,15.618,6.313s10.412,4.259,13.654,5.206,18.055,5.045,21.529,3.786,5.679-9.153,5.679-9.153,1.576-7.1.786-8.2-5.206-.79-6.465-2.366-8.836-3.313-8.836-3.313-8.183-6.786-9.129-6.786-3.464,2.679-6.072.629A138.518,138.518,0,0,0,528.424,429.5C522.432,426.344,517.132,411.516,517.132,411.516Z" transform="translate(-485.477 192.798)" fill="#4b4b5b"/>
    <path id="Path_108" data-name="Path 108" d="M536.27,427.216a9.039,9.039,0,0,1,7.757,2.049c3.786,3.157,16.526,9.494,16.526,9.494" transform="translate(-520.01 181.675)" opacity="0.1"/>
    <path id="Path_109" data-name="Path 109" d="M713.993,427s-16.881,2.556-20.033,6.025" transform="translate(-603.072 181.692)" opacity="0.1"/>
    <path id="Path_110" data-name="Path 110" d="M729,511.083h-.743c-2.669-.095-11.713-.379-13.455,0-2.049.473-29.186,0-29.186,0l5.305-1.1s-1.969-6.9-.719-7.473c0,0-7.1-4.676-1.746-7.832a16.6,16.6,0,0,1,11.122-1.827l13.436-4.553,2.579-.876s15.144.79,19.243,11.2S729,511.083,729,511.083Z" transform="translate(-598.679 149.866)" fill="#e7c7ca"/>
    <path id="Path_111" data-name="Path 111" d="M759.5,511.109h-.743c4.406-3.635,14.373-14.7-15.244-22.764l2.579-.876s15.144.79,19.243,11.2S759.5,511.109,759.5,511.109Z" transform="translate(-629.172 149.84)" opacity="0.1"/>
    <circle id="Ellipse_26" data-name="Ellipse 26" cx="0.828" cy="0.828" r="0.828" transform="translate(101.655 647.026)" fill="#4b4b5b"/>
    <circle id="Ellipse_27" data-name="Ellipse 27" cx="0.828" cy="0.828" r="0.828" transform="translate(96.842 648.394)" fill="#4b4b5b"/>
    <g id="Group_37" data-name="Group 37" transform="translate(17.468 456.922)" opacity="0.1">
      <path id="Path_112" data-name="Path 112" d="M628.75,123.779a36.719,36.719,0,0,0-2.716-15.211c-6.152.918-12.892-3.829-18.495-.989-4.146,2.1-5.447,7.369-5.679,12.011-.057,1.226-.066,2.451-.043,3.677,0-.435,0-.876.043-1.311.218-4.643,1.519-9.91,5.679-12.011,5.6-2.84,12.333,1.893,18.495.989A36.62,36.62,0,0,1,628.75,123.779Z" transform="translate(-571.998 -106.496)"/>
      <path id="Path_113" data-name="Path 113" d="M554.314,123.971a15.771,15.771,0,0,0-.062-3.1c-.5-4.165-2.778-8.145-3.19-12.205-.53,4.9,2.589,9.6,3.19,14.572A2.958,2.958,0,0,1,554.314,123.971Z" transform="translate(-545.238 -107.553)"/>
      <path id="Path_114" data-name="Path 114" d="M572.835,215.249c-.293,3.512-1.122,7.265-3.786,9.593s-7.572,2.2-9.053-.989c-.473-.947-.544-2.049-1-3-1.051-2.168-3.635-3.01-5.892-3.857-6.413-2.4-12.6-7.1-13.975-13.824a14.524,14.524,0,0,1-.251-1.846,14.916,14.916,0,0,0,.251,4.212c1.377,6.706,7.572,11.424,13.975,13.824,2.257.847,4.841,1.69,5.892,3.857.473.947.554,2.04,1,3,1.491,3.19,6.408,3.313,9.053.989s3.469-6.081,3.786-9.593a54.055,54.055,0,0,0,.147-5.556C572.981,213.133,572.92,214.193,572.835,215.249Z" transform="translate(-538.823 -156.361)"/>
      <path id="Path_115" data-name="Path 115" d="M687.93,130.531v2.049c.265-8.8,3.493-17.653,3.176-26.271C690.859,114.28,688.11,122.429,687.93,130.531Z" transform="translate(-617.364 -106.31)"/>
      <path id="Path_116" data-name="Path 116" d="M658.208,208.821a6.1,6.1,0,0,0,.109-1.708,9.466,9.466,0,0,0-1.264-3.46c-2.736-5.206-5.854-10.535-6.223-16.313,0,.246-.033.473-.038.738-.189,6.408,3.27,12.272,6.261,17.941A11.36,11.36,0,0,1,658.208,208.821Z" transform="translate(-597.797 -148.992)"/>
      <path id="Path_117" data-name="Path 117" d="M673.186,217.207a38.509,38.509,0,0,1-4.775,16.337c-2.5,4.548-6.914,9.077-12.03,8.2a2.011,2.011,0,0,1-1.221-.554,1.184,1.184,0,0,1-.222-.369c-.057.369-.1.743-.133,1.122a2.182,2.182,0,0,0,.355,1.614,2.012,2.012,0,0,0,1.221.554c5.116.876,9.531-3.654,12.03-8.2a38.509,38.509,0,0,0,4.775-16.337c.057-1.107.062-2.21.028-3.313C673.2,216.577,673.2,216.889,673.186,217.207Z" transform="translate(-599.898 -164.225)"/>
    </g>
    <path id="Path_118" data-name="Path 118" d="M695.31,512.516s11.978,5.026,19.877-6.1" transform="translate(-603.783 139.858)" fill="none" stroke="#000" stroke-miterlimit="10" stroke-width="1" opacity="0.1"/>
    <path id="Path_119" data-name="Path 119" d="M700.29,534.644s9.782-6.361,22.243-.208" transform="translate(-606.406 126.514)" fill="none" stroke="#000" stroke-miterlimit="10" stroke-width="1" opacity="0.1"/>
    <path id="Path_120" data-name="Path 120" d="M561.93,529.4s4.108-9.266,15.078-2.2" transform="translate(-533.526 130.31)" fill="none" stroke="#000" stroke-miterlimit="10" stroke-width="1" opacity="0.1"/>
    <path id="Path_121" data-name="Path 121" d="M533.79,234.944l8.377-7.572s32.48-2.13,33.824,8.911c0,0,11.514-13.09,35.731-10.175l10.246,8.159L593.648,246.7l-27.52,9.546-20.27-9.072Z" transform="translate(-518.704 287.733)" opacity="0.1"/>
    <path id="Path_122" data-name="Path 122" d="M533.79,235.944l8.377-7.572s32.48-2.13,33.824,8.911c0,0,11.514-13.09,35.731-10.175l10.246,8.159L593.648,247.7l-27.52,9.546-20.27-9.072Z" transform="translate(-518.704 287.206)" fill="#d5d6db"/>
    <path id="Path_123" data-name="Path 123" d="M437.38,204.83l3.706,44.33,39.281,1.973-1.7-44.141-.033-.743Z" transform="translate(-426 319.267)" opacity="0.1"/>
    <path id="Path_124" data-name="Path 124" d="M437.38,202.83l3.706,44.33,39.281,1.973-1.7-44.141-.033-.743Z" transform="translate(-426 320.32)" fill="#38d39f"/>
    <path id="Path_125" data-name="Path 125" d="M590.231,202.83l-40.521,6.077v44.529l39.6-5.722Z" transform="translate(-485.168 320.32)" opacity="0.1"/>
    <path id="Path_126" data-name="Path 126" d="M590.231,200.83l-40.521,6.077v44.529l39.6-5.722Z" transform="translate(-485.168 321.374)" fill="#38d39f"/>
    <path id="Path_127" data-name="Path 127" d="M590.778,223.79l-21.888,2.433.478,7.459,21.4-2.338Z" transform="translate(-495.271 309.28)" fill="#fff" opacity="0.3"/>
    <path id="Path_128" data-name="Path 128" d="M537.231,346.139l2.229,6s3.313,2.84,6.938,1.42,6.786-2.125,8.362-3.507,3.786-8.325,3.786-8.325,2.21-7.572,4.416-9.465,8.045-27.974,0-25.424-14.2,26.214-14.2,26.214a5.611,5.611,0,0,1-3.469,1.893c-2.049.161-6.152-.317-6.943,1.42S534.865,342.67,537.231,346.139Z" transform="translate(-520.016 245.08)" fill="#be6f72"/>
    <path id="Path_129" data-name="Path 129" d="M625.064,255.783a13.63,13.63,0,0,1-11.884-2.963l1.708,44.136a12.045,12.045,0,0,0,10.175,3.36Z" transform="translate(-560.522 273.44)" opacity="0.1"/>
    <path id="Path_130" data-name="Path 130" d="M625.064,253.783a13.63,13.63,0,0,1-11.884-2.963l1.708,44.136a12.045,12.045,0,0,0,10.175,3.36Z" transform="translate(-560.522 274.493)" fill="#38d39f"/>
    <path id="Path_131" data-name="Path 131" d="M625.064,253.783a13.63,13.63,0,0,1-11.884-2.963l1.708,44.136a12.045,12.045,0,0,0,10.175,3.36Z" transform="translate(-560.522 274.493)" opacity="0.1"/>
    <path id="Path_132" data-name="Path 132" d="M640.29,241.674s16.484-5.04,20.781-4.33" transform="translate(-574.802 281.628)" opacity="0.1"/>
    <path id="Path_133" data-name="Path 133" d="M580.576,238.688S564.6,234.9,561.93,235.976" transform="translate(-533.526 282.413)" opacity="0.1"/>
    <path id="Path_134" data-name="Path 134" d="M662.25,244.964s11.022-4.042,15.007-2.12" transform="translate(-586.369 278.968)" opacity="0.1"/>
    <path id="Path_135" data-name="Path 135" d="M650.52,452.9a36.235,36.235,0,0,1,5.433-3.374A88.647,88.647,0,0,0,664,444.61" transform="translate(-580.19 172.416)" opacity="0.1"/>
    <path id="Path_136" data-name="Path 136" d="M548.182,360.08s-6.914,5.655-8.992,6.152-3.36,4.908-3.36,4.908" transform="translate(-519.779 216.942)" opacity="0.1"/>
    <path id="Path_137" data-name="Path 137" d="M682.117,344.375l-2.205,6.01s-3.313,2.84-6.943,1.42-6.782-2.125-8.362-3.507-3.786-8.325-3.786-8.325-2.205-7.572-4.416-9.465-8.045-27.974,0-25.424S670.6,331.3,670.6,331.3a5.612,5.612,0,0,0,3.469,1.893c2.049.161,6.152-.317,6.943,1.42S684.484,340.92,682.117,344.375Z" transform="translate(-581.12 246.002)" fill="#be6f72"/>
    <path id="Path_138" data-name="Path 138" d="M707.15,364.94s4.52,2.906,4.5,6.38" transform="translate(-610.02 214.382)" opacity="0.1"/>
    <circle id="Ellipse_28" data-name="Ellipse 28" cx="21.141" cy="21.141" r="21.141" transform="translate(37.642 452.81)" fill="#be6f72"/>
    <path id="Path_139" data-name="Path 139" d="M586.419,105.493c2.565-.4,4.813-1.893,7.265-2.75,5.485-1.926,11.552-.606,17.1,1.131a22.181,22.181,0,0,0,6.526,1.42,6.605,6.605,0,0,0,5.745-2.84,6.42,6.42,0,0,0-.038-5.93,16.7,16.7,0,0,0-3.862-4.766c-4.922-4.647-11.027-8.992-17.78-8.519a24.47,24.47,0,0,0-7.813,2.239,86.131,86.131,0,0,0-9.172,4.619c-2.276,1.32-6.493,3.086-7.8,5.5C573.608,101.035,581.781,106.222,586.419,105.493Z" transform="translate(-540.912 362.782)" fill="#3e373a"/>
    <path id="Path_140" data-name="Path 140" d="M623.057,115.508a6.605,6.605,0,0,1-5.745,2.84,22.2,22.2,0,0,1-6.531-1.391c-5.551-1.737-11.614-3.062-17.1-1.131-2.447.857-4.7,2.366-7.265,2.745-3.739.587-9.759-2.669-10.412-6.81-.734,4.785,6.247,8.883,10.412,8.23,2.565-.4,4.818-1.893,7.265-2.745,5.49-1.931,11.552-.606,17.1,1.131a21.3,21.3,0,0,0,6.531,1.391,6.655,6.655,0,0,0,5.745-2.84,5.542,5.542,0,0,0,.662-3.46,5.1,5.1,0,0,1-.663,2.04Z" transform="translate(-540.91 347.742)" opacity="0.1"/>
    <path id="Path_141" data-name="Path 141" d="M1029.4,661.63s2.806,3.668-1.3,9.21-7.482,10.218-6.119,13.672c0,0,6.19-10.289,11.226-10.435S1034.937,667.816,1029.4,661.63Z" transform="translate(-775.696 58.103)" fill="#38d39f"/>
    <path id="Path_142" data-name="Path 142" d="M1029.583,661.63a4.544,4.544,0,0,1,.573,1.15c4.912,5.774,7.534,11.164,2.806,11.3-4.4.128-9.678,8-10.942,9.981a4.62,4.62,0,0,0,.147.473s6.19-10.289,11.226-10.435S1035.115,667.816,1029.583,661.63Z" transform="translate(-775.874 58.103)" opacity="0.1"/>
    <path id="Path_143" data-name="Path 143" d="M1048.278,670.591c0,1.292-.147,2.338-.322,2.338s-.327-1.046-.327-2.338.18-.681.36-.681S1048.278,669.3,1048.278,670.591Z" transform="translate(-789.364 53.818)" fill="#ffd037"/>
    <path id="Path_144" data-name="Path 144" d="M1050.329,673.757c-1.131.615-2.12.989-2.205.833s.762-.786,1.893-1.42.686-.17.771,0S1051.465,673.137,1050.329,673.757Z" transform="translate(-789.621 52.195)" fill="#ffd037"/>
    <path id="Path_145" data-name="Path 145" d="M999.654,661.63s-2.806,3.668,1.3,9.21,7.482,10.218,6.115,13.672c0,0-6.185-10.289-11.226-10.435S994.136,667.816,999.654,661.63Z" transform="translate(-760.778 58.103)" fill="#38d39f"/>
    <path id="Path_146" data-name="Path 146" d="M999.654,661.63a4.546,4.546,0,0,0-.573,1.15c-4.912,5.774-7.534,11.164-2.806,11.3,4.4.128,9.678,8,10.942,9.981a3.67,3.67,0,0,1-.151.473s-6.185-10.289-11.226-10.435S994.136,667.816,999.654,661.63Z" transform="translate(-760.778 58.103)" opacity="0.1"/>
    <path id="Path_147" data-name="Path 147" d="M995.64,670.591c0,1.292.142,2.338.322,2.338s.327-1.046.327-2.338-.185-.681-.36-.681S995.64,669.3,995.64,670.591Z" transform="translate(-761.979 53.818)" fill="#ffd037"/>
    <path id="Path_148" data-name="Path 148" d="M991.093,673.757c1.131.615,2.12.989,2.205.833s-.762-.786-1.893-1.42-.686-.17-.771,0S989.958,673.137,991.093,673.757Z" transform="translate(-759.221 52.195)" fill="#ffd037"/>
    <ellipse id="Ellipse_29" data-name="Ellipse 29" cx="29.342" cy="4.501" rx="29.342" ry="4.501" transform="translate(216.95 761.688)" fill="#38d39f" opacity="0.1"/>
    <path id="Path_149" data-name="Path 149" d="M1020.612,697.623l-.142,1.145-.2,1.619-.08.677-.2,1.619-.085.677-.194,1.614-2.248,18.41c-.2,1.642-2.882,2.925-6.124,2.925H999.675c-3.242,0-5.921-1.283-6.124-2.925l-2.248-18.41-.2-1.614-.08-.677-.2-1.619-.085-.677-.194-1.619-.142-1.145c-.109-.947,1.339-1.713,3.176-1.713h23.862C1019.273,695.91,1020.725,696.691,1020.612,697.623Z" transform="translate(-759.218 40.047)" fill="#65617d"/>
    <path id="Path_150" data-name="Path 150" d="M932.054,658.53l-.194,1.619H902.329l-.2-1.619Z" transform="translate(-670.802 80.285)" fill="#9d9cb5"/>
    <path id="Path_151" data-name="Path 151" d="M932.086,663.38,931.892,665H902.919l-.2-1.619Z" transform="translate(-671.113 77.73)" fill="#9d9cb5"/>
    <path id="Path_152" data-name="Path 152" d="M932.123,668.23l-.2,1.619h-28.41l-.194-1.619Z" transform="translate(-671.429 75.176)" fill="#9d9cb5"/>
    <g id="Group_39" data-name="Group 39" transform="translate(314.29 121.38) rotate(-17)" opacity="0.5">
      <path id="Path_154" data-name="Path 154" d="M187.775,248.625s-51.484-26.053-29.482-84.247S100.636,86,100.636,86s-15.6,56.663,13.712,94.4S154.975,280.777,187.775,248.625Z" transform="translate(-96.488 -86)" fill="#5abd8c"/>
      <path id="Path_155" data-name="Path 155" d="M109.8,86a342.087,342.087,0,0,1,32.682,86.6c10.961,48.959,28.805,89.361,54.192,75.106" transform="translate(-105.651 -86)" fill="none" stroke="#fff" stroke-miterlimit="10" stroke-width="1"/>
    </g>
    <g id="Group_40" data-name="Group 40" transform="translate(339.188 247.902) rotate(-17)" opacity="0.5">
      <path id="Path_156" data-name="Path 156" d="M305.47,372.623s-20.587-29.553,6.725-58.041-9.92-62.273-9.92-62.273-23.482,29.332-17.876,59.739S279.338,382.7,305.47,372.623Z" transform="translate(-283.534 -252.31)" fill="#5abd8c"/>
      <path id="Path_157" data-name="Path 157" d="M320.211,252.31a245.845,245.845,0,0,1-5.641,60.309c-7.2,32.037-8.455,60.889,8.935,59.39" transform="translate(-301.467 -252.31)" fill="none" stroke="#fff" stroke-miterlimit="10" stroke-width="1"/>
    </g>
    <path id="Path_14" data-name="Path 14" d="M149.52,591.112s8.746-12.986,24.25-.947c0,0-5.433,12.191-22.925,5.566Z" transform="translate(284.456 647.502) rotate(167)" fill="#38d39f"/>
    <path id="Path_15" data-name="Path 15" d="M145.6,553.318s10.2-11.931,25.556,0c0,0-9.673,10.469-25.556,3.048Z" transform="translate(278.056 628.959) rotate(167)" fill="#38d39f"/>
    <path id="Path_16" data-name="Path 16" d="M142.24,515.3s10.336-12.456,25.045-.663c0,0-11.661,11-25.045,3.578Z" transform="translate(271.776 609.624) rotate(167)" fill="#38d39f"/>
    <path id="Path_17" data-name="Path 17" d="M144.2,478.414s10.885-16.034,24.647-5.168c0,0-11.661,13.781-24.647,8.216Z" transform="translate(268.031 588.812) rotate(167)" fill="#38d39f"/>
    <path id="Path_18" data-name="Path 18" d="M149.52,440.2s11.529-15.9,24.912-3.71c0,0-13.649,13.781-24.912,6.626Z" transform="translate(266.309 568.896) rotate(167)" fill="#38d39f"/>
    <path id="Path_19" data-name="Path 19" d="M156.976,403.092s13.649-14.946,25.556-8.992c0,0-14.221,15.873-26.152,12.958Z" transform="translate(265.185 547.968) rotate(167)" fill="#38d39f"/>
    <path id="Path_20" data-name="Path 20" d="M166.477,366.72s15.75-18.306,24.912-12.191c0,0-11.6,14.2-26.029,15.618Z" transform="translate(265.123 526.672) rotate(167)" fill="#38d39f"/>
    <path id="Path_21" data-name="Path 21" d="M180.21,330.266S194,315.321,204.068,319.031c0,0-11.794,15.5-25.707,15.9Z" transform="translate(267.667 507.25) rotate(167)" fill="#38d39f"/>
    <path id="Path_22" data-name="Path 22" d="M194.7,294.193s15.239-14.311,21.865-11.794c0,0-11,15.9-22.527,14.974Z" transform="translate(271.409 486.743) rotate(167)" fill="#38d39f"/>
    <path id="Path_23" data-name="Path 23" d="M208.32,256.972s13.119-17.1,20.279-15.774c0,0-7.956,15.244-20.279,17.511Z" transform="translate(273.883 464.02) rotate(167)" fill="#38d39f"/>
    <path id="Path_24" data-name="Path 24" d="M221.768,215.506s11.595-13.1,17.861-13.076c0,0-9.153,17.511-18.339,17.35Z" transform="translate(275.955 442.623) rotate(167)" fill="#38d39f"/>
    <path id="Path_25" data-name="Path 25" d="M228.995,170.018l11.2-27.3s.558,24.676-12.627,32.362Z" transform="translate(272.103 411.233) rotate(167)" fill="#38d39f"/>
    <path id="Path_26" data-name="Path 26" d="M240.106,109.352s1.855-22.8.663-24.652c0,0,8.008,18.954-.738,34.723Z" transform="translate(271.623 379.979) rotate(167)" fill="#38d39f"/>
    <path id="Path_27" data-name="Path 27" d="M138.224,636.2S126.61,629,119.09,646.611c0,0,10.336,6.862,20.5-5.921Z" transform="translate(274.727 676.612) rotate(167)" fill="#38d39f"/>
    <path id="Path_28" data-name="Path 28" d="M125.185,595.07s-14.245-6.5-21.155,11.888c0,0,11,7.572,22.451-7.241Z" transform="translate(262.164 657.463) rotate(167)" fill="#38d39f"/>
    <path id="Path_29" data-name="Path 29" d="M115.756,555.628s-10.2-11.931-25.556,0c0,0,9.673,10.469,25.556,3.048Z" transform="translate(249.897 636.709) rotate(167)" fill="#38d39f"/>
    <path id="Path_30" data-name="Path 30" d="M113.625,515.3s-10.336-12.456-25.045-.663c0,0,11.661,11,25.045,3.578Z" transform="translate(244.235 615.982) rotate(167)" fill="#38d39f"/>
    <path id="Path_31" data-name="Path 31" d="M118.59,475.789s-7.25-17.96-23.01-10.237c0,0,8.519,15.925,22.366,13.218Z" transform="translate(242.384 591.573) rotate(167)" fill="#38d39f"/>
    <path id="Path_32" data-name="Path 32" d="M125.64,435.857s-7.208-18.273-23.19-9.8c0,0,9.787,16.749,22.48,12.622Z" transform="translate(241.193 570.327) rotate(167)" fill="#38d39f"/>
    <path id="Path_33" data-name="Path 33" d="M142.981,390.557s-2.84-20.033-16.091-21.827c0,0,2.811,21.126,14.307,25.438Z" transform="translate(247.21 539.16) rotate(167)" fill="#38d39f"/>
    <path id="Path_34" data-name="Path 34" d="M155,353.959S153.9,329.822,142.94,328.98c0,0,.369,18.32,10.828,28.4Z" transform="translate(250.737 516.857) rotate(167)" fill="#38d39f"/>
    <path id="Path_35" data-name="Path 35" d="M169.395,316.932s-3.265-20.071-13.725-22.522c0,0,1.3,19.437,12.688,27.449Z" transform="translate(253.175 497.606) rotate(167)" fill="#38d39f"/>
    <path id="Path_36" data-name="Path 36" d="M189.815,281.31s-.109-20.909-6.5-23.98c0,0-3.961,18.93,4.647,26.649Z" transform="translate(262.504 475.407) rotate(167)" fill="#38d39f"/>
    <path id="Path_37" data-name="Path 37" d="M200.7,246.772s-.894-21.529-7.511-24.562c0,0-2.262,17.037,6.522,25.973Z" transform="translate(263.742 456.135) rotate(167)" fill="#38d39f"/>
    <path id="Path_38" data-name="Path 38" d="M217.234,209.629s-.038-17.511-4.761-21.619c0,0-4.695,19.181,2.3,25.14Z" transform="translate(268.929 436.449) rotate(167)" fill="#38d39f"/>
    <path id="Path_39" data-name="Path 39" d="M222.341,166.143,217.746,137s-6.242,23.881,4.813,34.406Z" transform="translate(265.482 409.67) rotate(167)" fill="#38d39f"/>
    <path id="Path_40" data-name="Path 40" d="M218.438,113.14s-11.794-19.593-11.552-21.77c0,0,1.254,20.535,16.091,30.762Z" transform="translate(255.4 387.33) rotate(167)" fill="#38d39f"/>
    <g transform="matrix(1, 0, 0, 1, 0, 0)" filter="url(#Path_41)">
      <path id="Path_41-2" data-name="Path 41" d="M216.227,91.66S205.1,63.833,200.06,61.58c0,0,15.9,8.083,17.094,29.285Z" transform="translate(248.37 372.85) rotate(167)" fill="#38d39f"/>
    </g>
    <path id="Path_42" data-name="Path 42" d="M220.322,177.253l-.762-.232c9.394-30.634,11.737-50.166,6.6-55.064l.544-.577C232.153,126.548,229.943,145.866,220.322,177.253Z" transform="translate(265.463 401.23) rotate(167)" fill="#444053"/>
    <path id="Path_43" data-name="Path 43" d="M165.256,308.676l-1.126-.4c1-2.806,2.073-5.655,3.2-8.462,9.806-24.439,18.154-47.175,23.507-64.628l.98-.473c-5.362,17.487-13.564,41.093-23.379,65.565C167.315,303.03,166.245,305.865,165.256,308.676Z" transform="translate(250.443 465.963) rotate(167)" fill="#444053"/>
    <path id="Path_44" data-name="Path 44" d="M176.166,556.653c-.151-.166-15.376-17.312-25.991-46.583A172.352,172.352,0,0,1,139.919,456.7c-.729-22.778,4.051-48.211,12.239-71.316l.89,1.041c-18.381,51.855-11.079,96.29-1.391,123.048,10.5,29.006,25.556,45.963,25.7,46.133Z" transform="translate(255.832 546.17) rotate(167)" fill="#444053"/>
  </g>
</svg>
